<?xml version="1.0" encoding="UTF-8"?>
<svg width="408px" height="354px" viewBox="0 0 408 354" version="1.1" xmlns="http://www.w3.org/2000/svg" xmlns:xlink="http://www.w3.org/1999/xlink">
    <!-- Generator: Sketch 51.3 (57544) - http://www.bohemiancoding.com/sketch -->
    <title>Untitled</title>
    <desc>Created with Sketch.</desc>
    <defs></defs>
    <g id="Page-1" stroke="none" stroke-width="1" fill="none" fill-rule="evenodd">
        <g id="eyeball">
            <path d="M48,274.04 C47.8324803,273.701306 47.5724413,273.416997 47.25,273.22 C42.3826512,269.479389 37.8732808,265.294747 33.78,260.72 C29.4275556,256.014444 25.480201,250.949788 21.98,245.58 C19.69,241.9 17.22,238.34 15.2,234.5 C11.455572,227.601846 8.43932062,220.33268 6.2,212.81 C4.84,208.02 3.8,203.11 2.78,198.21 C0.81428502,188.16303 0.242239314,177.893127 1.08,167.69 C1.36,163.6 1.59,159.36 2.84,155.28 C3.65,152.68 3.84,149.88 4.49,147.19 C6.77237475,138.530253 9.91814003,130.121445 13.88,122.09 C18.2716538,113.233805 23.6924244,104.926432 30.03,97.34 C34.9737391,91.349122 40.5381106,85.8987196 46.63,81.08 C48.58,79.54 50.35,77.64 52.33,76.25 C54.48,74.74 56.94,73.5 59.26,72.14 C69.58,66.07 79.56,59.56 88.26,51.25 C94.9316163,44.8365201 102.053093,38.9080828 109.57,33.51 C117.104315,28.0648789 125.063158,23.2327244 133.37,19.06 C139.57,16 145.79,12.89 152.37,10.77 C158.95,8.65 165.7,6.31 172.62,4.77 C181.012535,2.92093801 189.497998,1.52227191 198.04,0.58 C211.738713,-0.502555951 225.515828,-0.0362742292 239.11,1.97 C246.521299,3.15501362 253.864855,4.73054032 261.11,6.69 C264.6,7.58 268.05,9 271.49,10.19 C276.3,11.86 281.03,13.68 285.65,15.76 C299.097283,21.8309258 311.718415,29.5864032 323.21,38.84 C332.329891,46.1688941 340.725073,54.3564572 348.28,63.29 C354.693836,70.8463569 360.432496,78.9507492 365.43,87.51 C368.66,93.03 371.59,98.68 374.3,104.44 C376.673464,109.65296 378.753382,114.994643 380.53,120.44 C381.73,123.96 382.73,127.54 383.96,131.05 C384.591096,132.932483 385.020176,134.876753 385.24,136.85 C385.66,140.31 387.04,143.51 387.39,147 C387.81,151.09 388.26,155.19 388.79,159.24 C389.411795,163.284571 389.745967,167.368149 389.79,171.46 C389.79,172.75 390.14,173.38 391.63,173.36 C395.77,173.29 399.91,173.42 404.05,173.36 C405.17588,173.268764 406.29273,173.088195 407.39,172.82 L407.39,180.11 C402.12,180.11 396.84,180.17 391.56,180.11 C390.35,180.11 389.87,180.43 389.84,181.63 C389.76,185.04 390.21,188.63 389.35,191.81 C388.26,195.81 389.27,200.03 387.77,203.97 C387.23,205.39 387.56,207.12 387.15,208.61 C385.76,213.61 385.03,218.77 383.54,223.77 C382.05,228.77 380.54,233.6 378.8,238.43 C374.739438,249.497259 369.523975,260.105832 363.24,270.08 C357.406391,279.369977 350.760355,288.124272 343.38,296.24 C334.543686,305.917411 324.648319,314.571664 313.88,322.04 C307.78585,326.426359 301.363607,330.337877 294.67,333.74 C288.11,336.97 281.58,340.26 274.61,342.67 C269.61,344.41 264.61,346.22 259.55,347.67 C256.93,348.41 254.21,349.05 251.55,349.61 C243.64,351.26 235.73,352.89 227.65,353.31 C216.894026,353.960132 206.106608,353.889975 195.36,353.1 C190.665089,352.74786 186.006479,352.015458 181.43,350.91 C178.67,350.22 175.79,349.63 172.92,349.17 C170.476043,348.784466 168.063105,348.223007 165.7,347.49 C159.41,345.55 153.17,343.49 147.03,341.08 C141.560374,338.91185 136.218423,336.43452 131.03,333.66 C116.349867,325.929671 102.808446,316.207711 90.79,304.77 C81.05,295.53 70.01,287.98 58.43,281.19 C56.04,279.79 53.8,278.14 51.53,276.55 C51.2632761,276.335079 50.9826671,276.137985 50.69,275.96 L48,274.04 Z M268.01,311.32 C268.69,311.14 269.26,310.61 269.93,310.39 C276.93,308.1 283.26,304.39 289.39,300.56 C301.076473,293.293982 311.663667,284.39387 320.83,274.13 C328.360691,265.760199 334.93464,256.576795 340.43,246.75 C345.395926,237.754187 349.359651,228.240576 352.25,218.38 C354.408876,210.966227 355.973824,203.392278 356.93,195.73 C357.53,190.99 358.32,186.32 358.13,181.54 C358.03,179.02 357.7,178.65 355.21,178.61 C354.03,178.61 353.58,177.85 353.51,176.81 C353.44,175.77 353.99,175.43 354.92,175.32 C357.85,174.95 358.08,174.66 358.13,171.67 C358.22,167.04 358.23,162.43 356.71,157.95 C356.01,155.89 357.02,153.52 356.2,151.61 C354.8,148.31 355.2,144.61 353.71,141.37 C352.83,139.42 352.87,137.08 352.2,135.01 C350.83,130.79 349.41,126.57 347.74,122.46 C344.382111,114.134116 340.26122,106.136709 335.43,98.57 C330.816711,91.3735366 325.587058,84.5913816 319.8,78.3 C311.673226,69.4005283 302.429942,61.5891131 292.3,55.06 C280.895699,47.5901952 268.442402,41.8606679 255.35,38.06 C249.76,36.47 244.12,35.24 238.44,34.06 C232.969925,32.9280101 227.419645,32.2258663 221.84,31.96 C209.99,31.39 198.1,31.53 186.45,34.39 C186.100916,34.4798647 185.73919,34.5102903 185.38,34.48 C182.48,34.24 179.73,35.38 177.12,36.14 C171.89,37.67 166.53,38.86 161.49,41.14 C157.2,43.07 152.65,44.36 148.76,47.21 C144.057009,50.5265519 141.082439,55.7714777 140.65,61.51 C139.74,74.46 140.26,87.51 140.39,100.51 C140.46,107.3 137.51,112.1 131.39,115.51 C132.71,116.29 133.57,117.93 135.12,116.37 C135.8,115.69 136.43,115.49 137.12,116.14 C137.485396,116.388065 137.714568,116.792021 137.740043,117.232931 C137.765518,117.673841 137.584394,118.101502 137.25,118.39 C136.34,119.2 136.7,119.78 137.25,120.57 C139.225178,123.277994 140.318081,126.528772 140.38,129.88 C140.286667,160.5 140.286667,191.123333 140.38,221.75 C140.38,225.75 140.1,229.52 137.56,232.81 C137.18,233.29 136.72,233.88 137.11,234.56 C137.63,235.47 138.11,236.47 137.25,237.29 C136.39,238.11 135.45,237.41 134.56,236.88 C133.37,236.17 132.36,237.31 131.8,237.88 C131.24,238.45 132.48,238.81 132.98,239.18 C137.33,242.36 140.29,246.36 140.31,251.98 C140.31,263.4 140.31,274.82 140.31,286.24 C140.168116,289.579371 140.570024,292.9196 141.5,296.13 C143.098856,301.568197 146.84294,306.121032 151.87,308.74 C157.177747,311.482226 162.753839,313.67044 168.51,315.27 C170.99,315.96 173.45,316.86 175.99,317.46 C178.53,318.06 181.3,317.95 183.61,319.12 C186.53,320.61 189.76,320.6 192.71,320.83 C197.71,321.22 202.71,322.19 207.79,321.75 C208.135299,321.724802 208.480954,321.793933 208.79,321.95 C210.491769,322.743483 212.40935,322.947556 214.24,322.53 C219.92,321.6 225.67,321.61 231.37,320.98 C234.71,320.61 238.17,320.57 241.37,319.39 C244.24,318.34 247.37,318.3 250.22,317.27 C253.61,316.06 257.14,315.27 260.58,314.18 L268.01,311.32 Z M260.58,314.18 C262.11,313.7 261.91,315.49 260.58,314.18 Z M62.5,78.41 C61.9370574,78.7046497 61.3957016,79.0388199 60.88,79.41 C50.88,85.41 42.56,93.41 35.04,102.2 C29.0199102,109.224041 23.9466801,117.007028 19.95,125.35 C18.21,128.96 16.54,132.62 15.14,136.35 C13.8581179,139.474254 12.834686,142.698399 12.08,145.99 C11.47,149.05 10.86,152.13 10.08,155.13 C9.11833954,159.2531 8.51938757,163.452456 8.29,167.68 C7.4313946,178.31113 8.10494492,189.010476 10.29,199.45 C11.6951246,206.586901 13.7023007,213.591946 16.29,220.39 C19.7758921,229.225917 24.376476,237.580228 29.98,245.25 C36.9628976,254.808995 45.3197974,263.283835 54.78,270.4 C56.55,271.72 58.26,273.23 60.34,273.92 C62.42,274.61 63.53,276.07 65.1,277.15 C68.88,279.76 72.89,282.05 76.67,284.71 C83.2964652,289.246633 89.567922,294.281182 95.43,299.77 C101.872473,305.902216 108.783431,311.522594 116.1,316.58 C121.65,320.43 127.53,323.71 133.39,327.04 C138.998698,330.090765 144.804962,332.763384 150.77,335.04 C154.88,336.69 159.09,338.04 163.31,339.43 C165.83,340.25 168.42,341.16 170.92,341.83 C174.828294,342.805494 178.787716,343.563326 182.78,344.1 C190.004411,345.294865 197.294313,346.052908 204.61,346.37 C215.137593,346.799901 225.682711,346.368464 236.14,345.08 C242.35,344.26 248.47,342.97 254.6,341.83 C258.030098,341.121108 261.392585,340.11738 264.65,338.83 C270.65,336.55 276.8,334.6 282.65,331.83 C291.726977,327.661049 300.452063,322.765102 308.74,317.19 C322.359285,307.793804 334.565995,296.499651 344.99,283.65 C350.982959,276.333106 356.320223,268.502887 360.94,260.25 C364.32,254.25 367.21,248.04 369.94,241.76 C371.687349,237.600457 373.212826,233.351154 374.51,229.03 C375.61,225.51 376.45,221.92 377.61,218.42 C378.469782,215.519642 379.174118,212.575452 379.72,209.6 C380.72,205.04 380.92,200.31 381.62,195.68 C382.019865,192.362109 382.203585,189.02173 382.17,185.68 C379.98094,188.677531 376.606783,190.586881 372.91,190.92 C372.383917,191.016625 372.027014,191.51012 372.1,192.04 C372.46,195.22 370.87,198.15 370.96,201.32 C371.05,204.68 369.72,207.85 369.18,211.14 C369.017331,213.104134 368.5936,215.037826 367.92,216.89 C366.69,219.55 366.4,222.46 365.43,225.17 C364.33,228.28 363.24,231.39 362.06,234.47 C361.06,237.1 359.82,239.65 358.72,242.24 C357.381713,245.508543 355.862701,248.700137 354.17,251.8 C351.17,257.03 348.17,262.25 344.73,267.2 C341.383981,272.062419 337.771807,276.736211 333.91,281.2 C327.120848,289.065464 319.593058,296.261736 311.43,302.69 C307.43,305.79 303.34,308.74 299.1,311.46 C293.354391,315.200789 287.368035,318.558093 281.18,321.51 C277.420401,323.315971 273.572188,324.931352 269.65,326.35 L260.65,329.48 C258.18,330.34 255.65,331.03 253.12,331.69 C250.59,332.35 247.69,332.79 245.05,333.49 C241.41,334.49 237.69,334.84 234.05,335.49 C230.075284,336.109844 226.069041,336.507129 222.05,336.68 C214.246611,337.207904 206.411502,337.030518 198.64,336.15 C192.32,335.35 186.06,334.36 179.78,333.33 C173.5,332.3 167.72,330.28 161.78,328.5 C157.694774,327.148759 153.688492,325.569616 149.78,323.77 C136.447214,318.0992 123.989048,310.560327 112.78,301.38 C104.077937,294.240964 96.0599525,286.306675 88.83,277.68 C83.2380543,270.946156 78.2771683,263.712368 74.01,256.07 C68.8415003,247.136502 64.5930629,237.701486 61.33,227.91 C61.0031307,226.477189 60.5822192,225.06747 60.07,223.69 C58.07,219.62 57.74,215.12 56.49,210.86 C55.18,206.41 55.28,201.68 54.09,197.15 C52.62,191.54 53.73,185.68 52.8,179.96 C51.97,174.81 53.51,169.64 53.47,164.46 C53.397884,163.175364 53.4413924,161.886845 53.6,160.61 C54.45,155.32 55.54,150.07 56.24,144.76 C56.7030628,141.965444 57.3172976,139.198049 58.08,136.47 C59.7332055,130.168732 61.8147126,123.987691 64.31,117.97 C68.9031082,106.494653 74.8019359,95.5861833 81.89,85.46 C83.4290437,83.5006263 84.797381,81.4129918 85.98,79.22 C85.6504861,79.1379975 85.3166272,79.0745643 84.98,79.03 C84.38,79.03 83.78,78.9 83.67,78.2 C83.52,77.27 84.24,76.81 84.87,76.35 C85.5,75.89 86.04,75.9 86.37,76.51 C87.31,78.27 88,77.1 88.66,76.34 C94.4581343,69.3021301 100.811874,62.7410582 107.66,56.72 C111.57,53.4 115.53,50.15 119.72,47.19 C124.89,43.55 130.2,40.19 135.72,37.06 C141.758336,33.6961071 148.008066,30.7265667 154.43,28.17 C159.21,26.24 164.16,24.72 169.1,23.22 C173.913505,21.7558255 178.812827,20.5902744 183.77,19.73 C187.49,19.08 191.3,18.98 194.95,18.29 C199.34525,17.5117672 203.796707,17.0937116 208.26,17.04 C213.746995,16.8131918 219.242424,16.8966582 224.72,17.29 C229.01,17.66 233.24,18.49 237.54,18.89 C240.015887,18.9864597 242.469204,19.3998269 244.84,20.12 C249.1,21.67 253.64,21.99 257.93,23.59 C261.32,24.86 264.99,25.66 268.38,26.99 C276.06987,29.9927673 283.54995,33.5073022 290.77,37.51 C302.54158,44.1687741 313.46428,52.2273296 323.3,61.51 C328.908198,66.8902567 334.109162,72.6795052 338.86,78.83 C344.96799,86.5241805 350.325739,94.7851601 354.86,103.5 C357.11,107.77 359.07,112.19 361.02,116.6 C363.26182,121.794532 365.133162,127.141225 366.62,132.6 C367.996597,137.292023 369.131424,142.051619 370.02,146.86 C370.95533,151.800333 371.62297,156.787606 372.02,161.8 C372.02,162.41 372.15,162.91 372.92,162.97 C376.7,163.24 379.63,165.09 382.18,167.91 C382.275336,164.583461 382.087996,161.254834 381.62,157.96 C380.91,153.41 380.8,148.73 379.77,144.25 C378.98,140.77 378.14,137.25 377.24,133.8 C376.24,130.1 375.06,126.48 373.97,122.8 C372.08834,116.979068 369.837098,111.28416 367.23,105.75 C362.887305,96.1185824 357.580219,86.9517986 351.39,78.39 C345.840822,70.6275589 339.649028,63.3452601 332.88,56.62 C327.332703,51.1031187 321.430073,45.9554374 315.21,41.21 C307.612757,35.3602807 299.460452,30.2692769 290.87,26.01 C283.45,22.35 276.01,18.72 268.07,16.28 C264.69,15.28 261.27,14.34 257.95,13.16 C255.516789,12.2556621 253.0111,11.5598231 250.46,11.08 C247.12,10.51 243.75,9.88 240.39,9.35 C233.036585,8.23033547 225.623882,7.5424901 218.19,7.29 C211.944272,6.8964612 205.675836,7.063798 199.46,7.79 C196.2,8.26 192.82,7.87 189.68,8.64 C183.52,10.13 177.14,10.36 171.04,12.26 C168.87,12.93 166.56,13.49 164.38,14.14 C158.418906,15.8203785 152.576038,17.8949471 146.89,20.35 C143.28,21.99 139.6,23.5 136.09,25.35 C130.898463,27.9806285 125.848217,30.8812653 120.96,34.04 C114.483757,38.1823277 108.32051,42.7947357 102.52,47.84 C97.52,52.3 92.67,56.9 87.52,61.21 C81.2470341,66.3458689 74.6133019,71.0245717 67.67,75.21 C67.41,75.37 67.18,75.52 66.97,75.67 L62.5,78.41 Z M87.43,82.19 C40.24,145.51 50.89,225.81 87.7,271.36 C86.89,266.81 87.88,262.66 87.85,258.45 C87.73,245.03 87.85,231.61 87.76,218.19 C87.76,214.42 91.88,211.19 94.91,211.3 C98.9890431,211.526538 102.21651,214.836538 102.34,218.92 C102.24,229.2 102.34,239.48 102.34,249.76 C102.284948,250.682513 102.284948,251.607487 102.34,252.53 C102.350867,253.398485 102.722121,254.223405 103.36497,254.807469 C104.007818,255.391532 104.864454,255.682216 105.73,255.61 C107.78,255.54 108.49,254.21 108.78,252.41 C108.980793,250.457749 109.393216,248.53311 110.01,246.67 C111.33,243.38 113.23,240.29 116.75,238.73 C117.16,238.55 117.75,238.4 117.65,237.73 C115.522401,236.870602 113.700849,235.393856 112.42,233.49 C109.52,229.73 108.7,225.37 108.7,220.75 C108.7,190.84 108.64,160.93 108.75,131.02 C108.658389,127.89078 109.512198,124.806614 111.2,122.17 C112.567928,119.911767 114.377352,117.952692 116.52,116.41 C117.4,115.84 117.73,115.58 116.52,114.89 C115.170987,114.102369 113.939007,113.129576 112.86,112 C110.01,109.05 109.51,105.1 108.78,101.32 C108.26,98.67 106.67,97.49 104.25,98.49 C102.43,99.24 102.25,100.92 102.25,102.63 C102.25,113.13 102.25,123.63 102.34,134.11 C102.569146,136.996157 101.153581,139.765404 98.68,141.27 C96.7152841,142.666917 94.1309713,142.837141 92,141.71 C89.71,140.57 87.75,138.84 87.74,135.81 C87.72,118.02 88.11,100.26 87.43,82.19 Z M360.96,166.76 C363.64,165.52 365.74,163.56 368.53,162.95 C369.28,162.79 369.02,162.14 369.01,161.55 C368.830152,157.742837 368.338505,153.956825 367.54,150.23 C367.087944,146.79872 366.453715,143.393912 365.64,140.03 C364.43,135.69 363.34,131.3 361.8,127.03 C359.769828,120.956272 357.402826,115.000375 354.71,109.19 C351.181658,101.7821 347.075642,94.663445 342.43,87.9 C338.283544,81.9424924 333.750463,76.2636151 328.86,70.9 C323.387803,64.9853833 317.51384,59.4555724 311.28,54.35 C307.464333,51.1732472 303.456757,48.2343576 299.28,45.55 C291.943504,40.8199692 284.254174,36.6610447 276.28,33.11 C270.308093,30.5555468 264.202527,28.3256299 257.99,26.43 C253.460108,25.0554123 248.847492,23.9698943 244.18,23.18 C238.133643,21.9322284 232.003832,21.1300721 225.84,20.78 C224.557286,20.7970364 223.274767,20.7335784 222,20.59 C216.414673,19.8571404 210.762565,19.7833005 205.16,20.37 C199.44,20.83 193.69,21.02 187.99,21.96 C184.42,22.55 180.91,23.45 177.37,24.13 C175.64,24.46 173.69,24.13 172.19,25.13 C170.19,26.47 167.76,26.57 165.58,27.31 C162.18,28.46 158.72,29.52 155.4,30.83 C148.303526,33.6390352 141.40744,36.9300449 134.76,40.68 C126.608865,45.3156669 118.888176,50.6702846 111.69,56.68 C105.504824,61.9567977 99.6972495,67.6607847 94.31,73.75 C91.9150433,76.1408326 90.6187545,79.4177637 90.73,82.8 C90.95,100.28 90.73,117.8 90.73,135.26 C90.7621271,137.573324 92.6267592,139.442385 94.94,139.48 C96.0958775,139.552511 97.2279056,139.129153 98.0525477,138.315964 C98.8771898,137.502775 99.3163381,136.376779 99.26,135.22 C99.26,124.87 99.26,114.52 99.2,104.17 C99.1629373,102.754296 99.3588838,101.342129 99.78,99.99 C100.78,96.99 103.78,94.57 106.35,94.91 C109.35,95.3 111.9,98.47 111.96,101.71 C111.88563,102.774619 111.956277,103.844406 112.17,104.89 C114.4,112.78 122.24,116.31 130.03,113.02 C134.671437,111.306649 137.666332,106.781929 137.43,101.84 C137.48,90.63 137.5,79.42 137.43,68.22 C137.347677,65.2490264 137.636577,62.2793965 138.29,59.38 C139.965899,51.6221765 145.208146,45.1120034 152.43,41.82 C159.509321,38.5590665 166.843842,35.8834548 174.36,33.82 C176.373561,33.1378147 178.445633,32.6423921 180.55,32.34 C184.5,31.94 188.36,30.96 192.21,30.2 C198.33,28.97 204.53,29.89 210.6,28.63 C213.6,28.01 216.67,29.26 219.6,29.18 C228.6,28.94 237.28,30.68 245.94,32.48 C251.394141,33.6499271 256.744872,35.2584908 261.94,37.29 C266.94,39.2 271.94,41.03 276.79,43.29 C293.561296,51.3681967 308.661138,62.5327843 321.3,76.2 C325.231411,80.3313492 328.886012,84.7175384 332.24,89.33 C336.258149,94.751145 339.884038,100.452312 343.09,106.39 C345.826229,111.265908 348.238123,116.316855 350.31,121.51 C352.653514,127.502161 354.656704,133.621908 356.31,139.84 C357.74,145.49 358.5,151.25 359.86,156.89 C360.66,160.1 359.72,163.51 360.96,166.76 Z M263.6,316.25 C261.869163,317.049185 260.054622,317.652913 258.19,318.05 C254.36,319.05 250.5,320 246.75,321.12 C243.732545,322.010726 240.649705,322.662737 237.53,323.07 C231.65,323.83 225.79,325.14 219.75,325 C212.13,324.82 204.44,325.52 196.9,324.28 C192.9,323.62 188.8,323.4 184.78,322.46 C181.73,321.74 178.54,321.1 175.5,320.34 C171.751631,319.382459 168.05648,318.227515 164.43,316.88 C160.43,315.39 156.37,313.83 152.43,312.06 C147.525156,309.84175 143.467323,306.099565 140.86,301.39 C138.573176,297.460071 137.362516,292.99684 137.35,288.45 C137.29,276.25 137.35,264.04 137.3,251.84 C137.393914,247.695606 135.27095,243.815574 131.73,241.66 C128.88,239.76 125.96,239.82 122.8,240.05 C117.62,240.43 114.31,242.97 112.55,247.87 C112.06161,249.490494 111.832118,251.177933 111.87,252.87 C111.74,256.08 107.79,259.56 105.04,258.87 C100.78,257.73 99.2,255.05 99.12,251.06 C98.95,241.71 99.12,232.36 99.12,223.06 C99.12,221.21 99.03,219.35 98.99,217.5 C98.9835391,216.16907 98.0442516,215.025226 96.74,214.76 C93.35,213.59 90.74,215.46 90.74,219.05 C90.74,236.316667 90.74,253.59 90.74,270.87 C90.8174013,271.649764 90.7938738,272.436257 90.67,273.21 C90.23,274.8 90.86,275.93 91.78,277.11 C96.4064547,282.832178 101.475389,288.181976 106.94,293.11 C113.643501,299.2908 120.896894,304.84716 128.61,309.71 C134.90908,313.642592 141.459871,317.156836 148.22,320.23 C153.223622,322.481905 158.348138,324.454927 163.57,326.14 C167.543279,327.54524 171.609837,328.671312 175.74,329.51 C178.93,330.1 182.07,330.93 185.28,331.43 C189.28,332.05 193.28,332.54 197.21,333.35 C200.64,334.05 204.31,333.72 207.87,333.72 C217.18,333.72 226.48,333.9 235.73,332.2 C238.98,331.6 242.42,331.38 245.56,330.54 C250.1,329.32 254.79,328.63 259.27,326.99 C262.49,325.81 265.85,324.8 269.08,323.6 C276.633727,320.803148 283.933787,317.36389 290.9,313.32 C298.346457,309.009217 305.44771,304.127941 312.14,298.72 C318.733935,293.462547 324.854051,287.636893 330.43,281.31 C336.325411,274.649469 341.65395,267.507956 346.36,259.96 C350.963844,252.553724 354.92178,244.764989 358.19,236.68 C359.98,232.2 361.78,227.68 363.13,223.08 C364.36,218.89 365.55,214.67 366.37,210.35 C366.92,207.41 366.88,204.35 367.9,201.56 C369.08,198.39 368.61,195.22 368.96,192.07 C369.089752,191.406891 368.689884,190.754933 368.04,190.57 C365.311242,189.757178 362.826947,188.279658 360.81,186.27 C360.435096,188.624514 360.254487,191.005876 360.27,193.39 C360.47861,195.245146 360.273702,197.123469 359.67,198.89 C358.35,201.95 358.54,205.25 357.83,208.4 C357.17,211.29 356.37,214.18 355.62,217.03 C354.38,221.78 352.41,226.34 350.77,231.03 C348.671809,236.621596 346.168499,242.052676 343.28,247.28 C339.526487,254.306106 335.177212,260.997299 330.28,267.28 C322.343724,277.557635 313.106499,286.761246 302.8,294.66 C294.872081,300.765503 286.333205,306.0336 277.32,310.38 C275.48,311.26 273.62,312.1 271.73,312.87 C271.3,313.05 270.81,313.19 270.34,313.34 L263.6,316.25 Z M111.88,176.87 L111.82,176.87 C111.82,192.43 111.82,207.986667 111.82,223.54 C111.695393,225.035863 111.868738,226.541585 112.33,227.97 C114.81,233.97 118.6,236.44 125.24,236.66 C130.97,236.85 137.43,231.43 137.41,224.41 C137.31,192.94 137.36,161.47 137.33,130 C137.453004,127.221876 136.681921,124.477519 135.13,122.17 C132.23,118.1 124.42,115.71 119.88,117.81 C114.62,120.24 111.83,124.26 111.88,130.2 C111.92,145.76 111.88,161.32 111.88,176.87 Z M378.3,177.08 C378.3,172.64 375.65,170.03 371.08,170.08 C366.51,170.13 364.51,172.94 364.2,176.9 C364.155817,180.793607 367.276393,183.985817 371.17,184.03 C375.063607,184.074182 378.255817,180.953607 378.3,177.06 L378.3,177.08 Z" id="Shape" fill="#070707" fill-rule="nonzero"></path>
            <path d="M83.62,271.28 L87.62,271.28" id="Shape" stroke="#0F0F0F" stroke-width="2"></path>
        </g>
    </g>
</svg>